<?xml version="1.0" encoding="UTF-8" standalone="no"?>
<!DOCTYPE svg PUBLIC "-//W3C//DTD SVG 1.1//EN"
 "http://www.w3.org/Graphics/SVG/1.1/DTD/svg11.dtd">
<!-- Generated by graphviz version 2.43.0 (0)
 -->
<!-- Title: %3 Pages: 1 -->
<svg width="214pt" height="260pt"
 viewBox="0.00 0.00 214.20 260.00" xmlns="http://www.w3.org/2000/svg" xmlns:xlink="http://www.w3.org/1999/xlink">
<g id="graph0" class="graph" transform="scale(1 1) rotate(0) translate(4 256)">
<title>%3</title>
<polygon fill="white" stroke="transparent" points="-4,4 -4,-256 210.2,-256 210.2,4 -4,4"/>
<!-- &#45;10 -->
<g id="node1" class="node">
<title>&#45;10</title>
<ellipse fill="none" stroke="black" cx="71.2" cy="-234" rx="27" ry="18"/>
<text text-anchor="middle" x="71.2" y="-230.3" font-family="Times,serif" font-size="14.00">&#45;10</text>
</g>
<!-- &#45;15 -->
<g id="node2" class="node">
<title>&#45;15</title>
<ellipse fill="none" stroke="black" cx="33.2" cy="-162" rx="27" ry="18"/>
<text text-anchor="middle" x="33.2" y="-158.3" font-family="Times,serif" font-size="14.00">&#45;15</text>
</g>
<!-- &#45;10&#45;&gt;&#45;15 -->
<g id="edge1" class="edge">
<title>&#45;10&#45;&gt;&#45;15</title>
<path fill="none" stroke="black" d="M62.38,-216.76C57.78,-208.28 52.04,-197.71 46.88,-188.2"/>
<polygon fill="black" stroke="black" points="49.81,-186.27 41.96,-179.15 43.66,-189.61 49.81,-186.27"/>
</g>
<!-- 5 -->
<g id="node4" class="node">
<title>5</title>
<ellipse fill="none" stroke="black" cx="107.2" cy="-162" rx="27" ry="18"/>
<text text-anchor="middle" x="107.2" y="-158.3" font-family="Times,serif" font-size="14.00">5</text>
</g>
<!-- &#45;10&#45;&gt;5 -->
<g id="edge3" class="edge">
<title>&#45;10&#45;&gt;5</title>
<path fill="none" stroke="black" d="M79.55,-216.76C83.91,-208.28 89.34,-197.71 94.24,-188.2"/>
<polygon fill="black" stroke="black" points="97.43,-189.64 98.89,-179.15 91.21,-186.44 97.43,-189.64"/>
</g>
<!-- &#45;100 -->
<g id="node3" class="node">
<title>&#45;100</title>
<ellipse fill="none" stroke="black" cx="31.2" cy="-90" rx="31.4" ry="18"/>
<text text-anchor="middle" x="31.2" y="-86.3" font-family="Times,serif" font-size="14.00">&#45;100</text>
</g>
<!-- &#45;15&#45;&gt;&#45;100 -->
<g id="edge2" class="edge">
<title>&#45;15&#45;&gt;&#45;100</title>
<path fill="none" stroke="black" d="M32.7,-143.7C32.48,-135.98 32.22,-126.71 31.97,-118.11"/>
<polygon fill="black" stroke="black" points="35.47,-118 31.69,-108.1 28.47,-118.2 35.47,-118"/>
</g>
<!-- 0 -->
<g id="node5" class="node">
<title>0</title>
<ellipse fill="none" stroke="black" cx="107.2" cy="-90" rx="27" ry="18"/>
<text text-anchor="middle" x="107.2" y="-86.3" font-family="Times,serif" font-size="14.00">0</text>
</g>
<!-- 5&#45;&gt;0 -->
<g id="edge4" class="edge">
<title>5&#45;&gt;0</title>
<path fill="none" stroke="black" d="M107.2,-143.7C107.2,-135.98 107.2,-126.71 107.2,-118.11"/>
<polygon fill="black" stroke="black" points="110.7,-118.1 107.2,-108.1 103.7,-118.1 110.7,-118.1"/>
</g>
<!-- 10 -->
<g id="node7" class="node">
<title>10</title>
<ellipse fill="none" stroke="black" cx="179.2" cy="-90" rx="27" ry="18"/>
<text text-anchor="middle" x="179.2" y="-86.3" font-family="Times,serif" font-size="14.00">10</text>
</g>
<!-- 5&#45;&gt;10 -->
<g id="edge6" class="edge">
<title>5&#45;&gt;10</title>
<path fill="none" stroke="black" d="M121.77,-146.83C131.95,-136.94 145.72,-123.55 157.23,-112.36"/>
<polygon fill="black" stroke="black" points="159.67,-114.87 164.4,-105.38 154.79,-109.85 159.67,-114.87"/>
</g>
<!-- &#45;6 -->
<g id="node6" class="node">
<title>&#45;6</title>
<ellipse fill="none" stroke="black" cx="107.2" cy="-18" rx="27" ry="18"/>
<text text-anchor="middle" x="107.2" y="-14.3" font-family="Times,serif" font-size="14.00">&#45;6</text>
</g>
<!-- 0&#45;&gt;&#45;6 -->
<g id="edge5" class="edge">
<title>0&#45;&gt;&#45;6</title>
<path fill="none" stroke="black" d="M107.2,-71.7C107.2,-63.98 107.2,-54.71 107.2,-46.11"/>
<polygon fill="black" stroke="black" points="110.7,-46.1 107.2,-36.1 103.7,-46.1 110.7,-46.1"/>
</g>
<!-- 6 -->
<g id="node8" class="node">
<title>6</title>
<ellipse fill="none" stroke="black" cx="179.2" cy="-18" rx="27" ry="18"/>
<text text-anchor="middle" x="179.2" y="-14.3" font-family="Times,serif" font-size="14.00">6</text>
</g>
<!-- 10&#45;&gt;6 -->
<g id="edge7" class="edge">
<title>10&#45;&gt;6</title>
<path fill="none" stroke="black" d="M179.2,-71.7C179.2,-63.98 179.2,-54.71 179.2,-46.11"/>
<polygon fill="black" stroke="black" points="182.7,-46.1 179.2,-36.1 175.7,-46.1 182.7,-46.1"/>
</g>
</g>
</svg>
